<?xml version="1.0" encoding="UTF-8"?>
<!DOCTYPE svg PUBLIC "-//W3C//DTD SVG 1.1//EN" "http://www.w3.org/Graphics/SVG/1.1/DTD/svg11.dtd">
<svg version="1.2" width="207.01mm" height="207.01mm" viewBox="4000 0 20701 20701" preserveAspectRatio="xMidYMid" fill-rule="evenodd" stroke-width="28.222" stroke-linejoin="round" xmlns="http://www.w3.org/2000/svg" xmlns:ooo="http://xml.openoffice.org/svg/export" xmlns:xlink="http://www.w3.org/1999/xlink" xmlns:presentation="http://sun.com/xmlns/staroffice/presentation" xmlns:smil="http://www.w3.org/2001/SMIL20/" xmlns:anim="urn:oasis:names:tc:opendocument:xmlns:animation:1.0" xml:space="preserve">
 <defs class="EmbeddedBulletChars">
  <g id="bullet-char-template-57356" transform="scale(0.00048828125,-0.00048828125)">
   <path d="M 580,1141 L 1163,571 580,0 -4,571 580,1141 Z"/>
  </g>
  <g id="bullet-char-template-57354" transform="scale(0.00048828125,-0.00048828125)">
   <path d="M 8,1128 L 1137,1128 1137,0 8,0 8,1128 Z"/>
  </g>
  <g id="bullet-char-template-10146" transform="scale(0.00048828125,-0.00048828125)">
   <path d="M 174,0 L 602,739 174,1481 1456,739 174,0 Z M 1358,739 L 309,1346 659,739 1358,739 Z"/>
  </g>
  <g id="bullet-char-template-10132" transform="scale(0.00048828125,-0.00048828125)">
   <path d="M 2015,739 L 1276,0 717,0 1260,543 174,543 174,936 1260,936 717,1481 1274,1481 2015,739 Z"/>
  </g>
  <g id="bullet-char-template-10007" transform="scale(0.00048828125,-0.00048828125)">
   <path d="M 0,-2 C -7,14 -16,27 -25,37 L 356,567 C 262,823 215,952 215,954 215,979 228,992 255,992 264,992 276,990 289,987 310,991 331,999 354,1012 L 381,999 492,748 772,1049 836,1024 860,1049 C 881,1039 901,1025 922,1006 886,937 835,863 770,784 769,783 710,716 594,584 L 774,223 C 774,196 753,168 711,139 L 727,119 C 717,90 699,76 672,76 641,76 570,178 457,381 L 164,-76 C 142,-110 111,-127 72,-127 30,-127 9,-110 8,-76 1,-67 -2,-52 -2,-32 -2,-23 -1,-13 0,-2 Z"/>
  </g>
  <g id="bullet-char-template-10004" transform="scale(0.00048828125,-0.00048828125)">
   <path d="M 285,-33 C 182,-33 111,30 74,156 52,228 41,333 41,471 41,549 55,616 82,672 116,743 169,778 240,778 293,778 328,747 346,684 L 369,508 C 377,444 397,411 428,410 L 1163,1116 C 1174,1127 1196,1133 1229,1133 1271,1133 1292,1118 1292,1087 L 1292,965 C 1292,929 1282,901 1262,881 L 442,47 C 390,-6 338,-33 285,-33 Z"/>
  </g>
  <g id="bullet-char-template-9679" transform="scale(0.00048828125,-0.00048828125)">
   <path d="M 813,0 C 632,0 489,54 383,161 276,268 223,411 223,592 223,773 276,916 383,1023 489,1130 632,1184 813,1184 992,1184 1136,1130 1245,1023 1353,916 1407,772 1407,592 1407,412 1353,268 1245,161 1136,54 992,0 813,0 Z"/>
  </g>
  <g id="bullet-char-template-8226" transform="scale(0.00048828125,-0.00048828125)">
   <path d="M 346,457 C 273,457 209,483 155,535 101,586 74,649 74,723 74,796 101,859 155,911 209,963 273,989 346,989 419,989 480,963 531,910 582,859 608,796 608,723 608,648 583,586 532,535 482,483 420,457 346,457 Z"/>
  </g>
  <g id="bullet-char-template-8211" transform="scale(0.00048828125,-0.00048828125)">
   <path d="M -4,459 L 1135,459 1135,606 -4,606 -4,459 Z"/>
  </g>
  <g id="bullet-char-template-61548" transform="scale(0.00048828125,-0.00048828125)">
   <path d="M 173,740 C 173,903 231,1043 346,1159 462,1274 601,1332 765,1332 928,1332 1067,1274 1183,1159 1299,1043 1357,903 1357,740 1357,577 1299,437 1183,322 1067,206 928,148 765,148 601,148 462,206 346,322 231,437 173,577 173,740 Z"/>
  </g>
 </defs>
 <g class="Page">
  <g class="com.sun.star.drawing.CustomShape">
   <g id="id3">
    <rect class="BoundingBox" stroke="none" fill="none" x="6000" y="2000" width="16702" height="17002"/>
    <path fill="rgb(42,90,184)" stroke="none" d="M 7276,2300 L 7276,2300 C 7052,2300 6832,2359 6638,2471 6444,2583 6283,2744 6171,2938 6059,3132 6000,3352 6000,3576 L 6000,17724 6000,17725 C 6000,17949 6059,18169 6171,18363 6283,18557 6444,18718 6638,18830 6832,18942 7052,19001 7276,19001 L 21424,19001 21425,19001 C 21649,19001 21869,18942 22063,18830 22257,18718 22418,18557 22530,18363 22642,18169 22701,17949 22701,17725 L 22701,3576 22701,3576 22701,3576 C 22701,3352 22642,3132 22530,2938 22418,2744 22257,2583 22063,2471 21869,2359 21649,2300 21425,2300 L 7276,2300 Z"/>
    <g>
     <defs>
      <pattern id="pattern1" x="6000" y="2300" width="16702" height="16702" patternUnits="userSpaceOnUse">
       <g transform="translate(-6000,-2300)">
        <line fill="rgb(238,238,238)" stroke="rgb(238,238,238)" x1="6000" y1="4285" x2="22701" y2="4285"/>
        <line fill="rgb(238,238,238)" stroke="rgb(238,238,238)" x1="6000" y1="6296" x2="22701" y2="6296"/>
        <line fill="rgb(238,238,238)" stroke="rgb(238,238,238)" x1="6000" y1="8307" x2="22701" y2="8307"/>
        <line fill="rgb(238,238,238)" stroke="rgb(238,238,238)" x1="6000" y1="10318" x2="22701" y2="10318"/>
        <line fill="rgb(238,238,238)" stroke="rgb(238,238,238)" x1="6000" y1="12329" x2="22701" y2="12329"/>
        <line fill="rgb(238,238,238)" stroke="rgb(238,238,238)" x1="6000" y1="14340" x2="22701" y2="14340"/>
        <line fill="rgb(238,238,238)" stroke="rgb(238,238,238)" x1="6000" y1="16351" x2="22701" y2="16351"/>
        <line fill="rgb(238,238,238)" stroke="rgb(238,238,238)" x1="6170" y1="18362" x2="22531" y2="18362"/>
        <line fill="rgb(238,238,238)" stroke="rgb(238,238,238)" x1="7985" y1="2300" x2="7985" y2="19001"/>
        <line fill="rgb(238,238,238)" stroke="rgb(238,238,238)" x1="9996" y1="2300" x2="9996" y2="19001"/>
        <line fill="rgb(238,238,238)" stroke="rgb(238,238,238)" x1="12007" y1="2300" x2="12007" y2="19001"/>
        <line fill="rgb(238,238,238)" stroke="rgb(238,238,238)" x1="14018" y1="2300" x2="14018" y2="19001"/>
        <line fill="rgb(238,238,238)" stroke="rgb(238,238,238)" x1="16029" y1="2300" x2="16029" y2="19001"/>
        <line fill="rgb(238,238,238)" stroke="rgb(238,238,238)" x1="18040" y1="2300" x2="18040" y2="19001"/>
        <line fill="rgb(238,238,238)" stroke="rgb(238,238,238)" x1="20051" y1="2300" x2="20051" y2="19001"/>
        <line fill="rgb(238,238,238)" stroke="rgb(238,238,238)" x1="22062" y1="2470" x2="22062" y2="18831"/>
       </g>
      </pattern>
     </defs>
     <path style="fill:url(#pattern1)" d="M 7276,2300 L 7276,2300 7192,2303 7109,2311 7027,2325 6946,2343 6866,2368 6788,2397 6712,2431 6638,2471 6567,2515 6499,2564 6435,2617 6374,2674 6317,2735 6264,2799 6215,2867 6171,2938 6131,3012 6097,3088 6068,3166 6043,3246 6025,3327 6011,3409 6003,3492 6000,3576 6000,17724 6000,17725 6003,17809 6011,17892 6025,17974 6043,18055 6068,18135 6097,18213 6131,18289 6171,18363 6215,18434 6264,18502 6317,18566 6374,18627 6435,18684 6499,18737 6567,18786 6638,18830 6712,18870 6788,18904 6866,18933 6946,18958 7027,18976 7109,18990 7192,18998 7276,19001 21424,19001 21425,19001 21509,18998 21592,18990 21674,18976 21755,18958 21835,18933 21913,18904 21989,18870 22063,18830 22134,18786 22202,18737 22266,18684 22327,18627 22384,18566 22437,18502 22486,18434 22530,18363 22570,18289 22604,18213 22633,18135 22658,18055 22676,17974 22690,17892 22698,17809 22701,17725 22701,3576 22701,3576 22701,3576 22698,3492 22690,3409 22676,3327 22658,3246 22633,3166 22604,3088 22570,3012 22530,2938 22486,2867 22437,2799 22384,2735 22327,2674 22266,2617 22202,2564 22134,2515 22063,2471 21989,2431 21913,2397 21835,2368 21755,2343 21674,2325 21592,2311 21509,2303 21425,2300 7276,2300 Z"/>
    </g>
    <path fill="rgb(40,102,209)" stroke="none" d="M 7276,2000 L 7276,2000 C 7052,2000 6832,2059 6638,2171 6444,2283 6283,2444 6171,2638 6059,2832 6000,3052 6000,3276 L 6000,17424 6000,17425 C 6000,17649 6059,17869 6171,18063 6283,18257 6444,18418 6638,18530 6832,18642 7052,18701 7276,18701 L 21424,18701 21425,18701 C 21649,18701 21869,18642 22063,18530 22257,18418 22418,18257 22530,18063 22642,17869 22701,17649 22701,17425 L 22701,3276 22701,3276 22701,3276 C 22701,3052 22642,2832 22530,2638 22418,2444 22257,2283 22063,2171 21869,2059 21649,2000 21425,2000 L 7276,2000 Z"/>
    <g>
     <defs>
      <pattern id="pattern2" x="6000" y="2000" width="16702" height="16702" patternUnits="userSpaceOnUse">
       <g transform="translate(-6000,-2000)">
        <line fill="rgb(238,238,238)" stroke="rgb(238,238,238)" x1="6000" y1="3985" x2="22701" y2="3985"/>
        <line fill="rgb(238,238,238)" stroke="rgb(238,238,238)" x1="6000" y1="5996" x2="22701" y2="5996"/>
        <line fill="rgb(238,238,238)" stroke="rgb(238,238,238)" x1="6000" y1="8007" x2="22701" y2="8007"/>
        <line fill="rgb(238,238,238)" stroke="rgb(238,238,238)" x1="6000" y1="10018" x2="22701" y2="10018"/>
        <line fill="rgb(238,238,238)" stroke="rgb(238,238,238)" x1="6000" y1="12029" x2="22701" y2="12029"/>
        <line fill="rgb(238,238,238)" stroke="rgb(238,238,238)" x1="6000" y1="14040" x2="22701" y2="14040"/>
        <line fill="rgb(238,238,238)" stroke="rgb(238,238,238)" x1="6000" y1="16051" x2="22701" y2="16051"/>
        <line fill="rgb(238,238,238)" stroke="rgb(238,238,238)" x1="6170" y1="18062" x2="22531" y2="18062"/>
        <line fill="rgb(238,238,238)" stroke="rgb(238,238,238)" x1="7985" y1="2000" x2="7985" y2="18701"/>
        <line fill="rgb(238,238,238)" stroke="rgb(238,238,238)" x1="9996" y1="2000" x2="9996" y2="18701"/>
        <line fill="rgb(238,238,238)" stroke="rgb(238,238,238)" x1="12007" y1="2000" x2="12007" y2="18701"/>
        <line fill="rgb(238,238,238)" stroke="rgb(238,238,238)" x1="14018" y1="2000" x2="14018" y2="18701"/>
        <line fill="rgb(238,238,238)" stroke="rgb(238,238,238)" x1="16029" y1="2000" x2="16029" y2="18701"/>
        <line fill="rgb(238,238,238)" stroke="rgb(238,238,238)" x1="18040" y1="2000" x2="18040" y2="18701"/>
        <line fill="rgb(238,238,238)" stroke="rgb(238,238,238)" x1="20051" y1="2000" x2="20051" y2="18701"/>
        <line fill="rgb(238,238,238)" stroke="rgb(238,238,238)" x1="22062" y1="2170" x2="22062" y2="18531"/>
       </g>
      </pattern>
     </defs>
     <path style="fill:url(#pattern2)" d="M 7276,2000 L 7276,2000 7192,2003 7109,2011 7027,2025 6946,2043 6866,2068 6788,2097 6712,2131 6638,2171 6567,2215 6499,2264 6435,2317 6374,2374 6317,2435 6264,2499 6215,2567 6171,2638 6131,2712 6097,2788 6068,2866 6043,2946 6025,3027 6011,3109 6003,3192 6000,3276 6000,17424 6000,17425 6003,17509 6011,17592 6025,17674 6043,17755 6068,17835 6097,17913 6131,17989 6171,18063 6215,18134 6264,18202 6317,18266 6374,18327 6435,18384 6499,18437 6567,18486 6638,18530 6712,18570 6788,18604 6866,18633 6946,18658 7027,18676 7109,18690 7192,18698 7276,18701 21424,18701 21425,18701 21509,18698 21592,18690 21674,18676 21755,18658 21835,18633 21913,18604 21989,18570 22063,18530 22134,18486 22202,18437 22266,18384 22327,18327 22384,18266 22437,18202 22486,18134 22530,18063 22570,17989 22604,17913 22633,17835 22658,17755 22676,17674 22690,17592 22698,17509 22701,17425 22701,3276 22701,3276 22701,3276 22698,3192 22690,3109 22676,3027 22658,2946 22633,2866 22604,2788 22570,2712 22530,2638 22486,2567 22437,2499 22384,2435 22327,2374 22266,2317 22202,2264 22134,2215 22063,2171 21989,2131 21913,2097 21835,2068 21755,2043 21674,2025 21592,2011 21509,2003 21425,2000 7276,2000 Z"/>
    </g>
   </g>
  </g>
  <g class="com.sun.star.drawing.CustomShape">
   <g id="id4">
    <rect class="BoundingBox" stroke="none" fill="none" x="6000" y="2000" width="16702" height="16702"/>
    <defs>
     <mask id="mask1">
      <g>
       <defs>
        <linearGradient id="gradient1" x1="22700" y1="2000" x2="5999" y2="18701" gradientUnits="userSpaceOnUse">
         <stop offset="0.52" style="stop-color:rgb(255,255,255)"/>
         <stop offset="1" style="stop-color:rgb(0,0,0)"/>
        </linearGradient>
       </defs>
       <path style="fill:url(#gradient1)" d="M 6000,2000 L 22701,2000 22701,18701 6000,18701 6000,2000 Z"/>
      </g>
     </mask>
    </defs>
    <g style="mask:url(#mask1)">
     <path fill="rgb(40,102,209)" stroke="none" d="M 7276,2000 L 7276,2000 C 7052,2000 6832,2059 6638,2171 6444,2283 6283,2444 6171,2638 6059,2832 6000,3052 6000,3276 L 6000,17424 6000,17425 C 6000,17649 6059,17869 6171,18063 6283,18257 6444,18418 6638,18530 6832,18642 7052,18701 7276,18701 L 21424,18701 21425,18701 C 21649,18701 21869,18642 22063,18530 22257,18418 22418,18257 22530,18063 22642,17869 22701,17649 22701,17425 L 22701,3276 22701,3276 22701,3276 C 22701,3052 22642,2832 22530,2638 22418,2444 22257,2283 22063,2171 21869,2059 21649,2000 21425,2000 L 7276,2000 Z"/>
    </g>
   </g>
  </g>
  <g class="com.sun.star.drawing.CustomShape">
   <g id="id5">
    <rect class="BoundingBox" stroke="none" fill="none" x="4000" y="0" width="20701" height="20701"/>
   </g>
  </g>
  <g class="com.sun.star.drawing.ClosedBezierShape">
   <g id="id6">
    <rect class="BoundingBox" stroke="none" fill="none" x="6369" y="1999" width="16332" height="16333"/>
    <path fill="rgb(68,128,232)" stroke="none" d="M 6370,2377 C 6449,2297 6539,2228 6637,2171 6831,2059 7051,2000 7275,2000 L 21424,2000 C 21648,2000 21868,2059 22062,2171 22256,2283 22417,2444 22529,2638 22641,2832 22700,3052 22700,3276 L 22700,17425 C 22700,17649 22641,17869 22529,18063 22472,18161 22403,18251 22323,18330 L 6370,2377 Z"/>
   </g>
  </g>
  <g class="Group">
   <g class="com.sun.star.drawing.CustomShape">
    <g id="id7">
     <rect class="BoundingBox" stroke="none" fill="none" x="7320" y="7350" width="6002" height="6003"/>
     <path fill="rgb(255,255,255)" stroke="none" d="M 13321,10351 C 13321,10877 13182,11395 12919,11851 12656,12307 12277,12686 11821,12949 11365,13212 10847,13351 10321,13351 9794,13351 9276,13212 8820,12949 8364,12686 7985,12307 7722,11851 7459,11395 7320,10877 7320,10351 7320,9824 7459,9306 7722,8850 7985,8394 8364,8015 8820,7752 9276,7489 9794,7350 10320,7350 10847,7350 11365,7489 11821,7752 12277,8015 12656,8394 12919,8850 13182,9306 13321,9824 13321,10350 L 13321,10351 Z M 11173,10351 C 11173,10500 11134,10647 11059,10777 10984,10907 10877,11014 10747,11089 10617,11164 10470,11203 10321,11203 10171,11203 10024,11164 9894,11089 9764,11014 9657,10907 9582,10777 9507,10647 9468,10500 9468,10351 9468,10201 9507,10054 9582,9924 9657,9794 9764,9687 9894,9612 10024,9537 10171,9498 10321,9498 10470,9498 10617,9537 10747,9612 10877,9687 10984,9794 11059,9924 11134,10054 11173,10201 11173,10351 L 11173,10351 Z"/>
    </g>
   </g>
   <g class="com.sun.star.drawing.CustomShape">
    <g id="id8">
     <rect class="BoundingBox" stroke="none" fill="none" x="12020" y="9350" width="7652" height="2002"/>
     <path fill="rgb(255,255,255)" stroke="none" d="M 12020,9350 L 12020,9350 12020,9350 12020,9350 12020,9350 12020,9350 12020,11351 12020,11351 12020,11351 12020,11351 12020,11351 19670,11351 19671,11351 19671,11351 19671,11351 19671,11351 19671,11351 19670,9350 19671,9350 19671,9350 19671,9350 19671,9350 12020,9350 Z"/>
    </g>
   </g>
   <g class="com.sun.star.drawing.CustomShape">
    <g id="id9">
     <rect class="BoundingBox" stroke="none" fill="none" x="17959" y="9349" width="3422" height="3423"/>
     <path fill="rgb(255,255,255)" stroke="none" d="M 20525,11915 L 19669,12770 17959,11060 19669,9350 21380,11060 20525,11915 Z"/>
    </g>
   </g>
   <g class="com.sun.star.drawing.CustomShape">
    <g id="id10">
     <rect class="BoundingBox" stroke="none" fill="none" x="14980" y="9349" width="3422" height="3423"/>
     <path fill="rgb(255,255,255)" stroke="none" d="M 17546,11915 L 16690,12770 14980,11060 16690,9350 18401,11060 17546,11915 Z"/>
    </g>
   </g>
  </g>
 </g>
</svg>